<svg width="4166" height="843" viewBox="0 0 4166 843" fill="none" xmlns="http://www.w3.org/2000/svg">
<path d="M242.191 735.651H113.32V5.6714C113.32 2.56378 110.827 0 107.633 0H6.57741C3.46083 0 0.889648 2.56378 0.889648 5.6714V836.571C0.889648 839.678 3.46083 842.242 6.57741 842.242H242.191C245.308 842.242 247.879 839.678 247.879 836.571V741.322C247.879 738.215 245.308 735.651 242.191 735.651Z" fill="white"/>
<path d="M658.411 269.353H630.752V226.39C630.752 223.282 628.18 220.719 625.064 220.719H553.46C550.344 220.719 547.773 223.282 547.773 226.39V269.353H526.58C503.751 269.353 456.613 261.273 456.613 215.824V140.387C456.613 94.9377 479.441 77.9235 502.193 77.9235C524.944 77.9235 547.773 94.1608 547.773 139.61C547.773 142.717 550.344 145.281 553.46 145.281H625.064C628.18 145.281 630.752 142.717 630.752 139.61V129.044C630.752 43.8174 590.937 0 506.322 0C421.707 0 373.711 45.4489 373.711 135.492V205.258C373.711 259.641 385.944 292.893 442.043 307.499C385.866 325.368 373.711 363.514 373.711 417.819V500.56C373.711 591.457 413.604 642.578 503.128 642.578C592.651 642.578 630.907 593.089 630.907 504.677V345.645H658.567C661.684 345.645 664.255 343.081 664.255 339.973V275.102C664.255 271.917 661.684 269.353 658.567 269.353H658.411ZM547.928 502.191C547.928 547.64 525.177 563.877 502.348 563.877C479.519 563.877 456.768 547.64 456.768 502.191V399.174C456.768 353.725 503.985 345.645 526.736 345.645H547.928V502.269V502.191Z" fill="white"/>
<path d="M981.29 0H800.606C797.49 0 794.918 2.56378 794.918 5.6714V836.571C794.918 839.678 797.49 842.242 800.606 842.242H901.661C904.778 842.242 907.349 839.678 907.349 836.571V495.898H987.835C1072.76 495.898 1137.82 446.409 1137.82 320.007V175.969C1137.82 49.4888 1066.14 0 981.212 0H981.29ZM1025.31 305.712C1025.31 367.32 1005.44 389.307 963.526 389.307H907.271V106.669H963.526C1005.44 106.669 1025.31 128.655 1025.31 190.264V305.712Z" fill="white"/>
<path d="M1606.09 4.97219C1605.7 2.17533 1603.28 0 1600.4 0H1444.96C1442.08 0 1439.66 2.09764 1439.27 4.97219L1327.23 835.871C1326.76 839.29 1329.41 842.32 1332.92 842.32H1433.74C1436.62 842.32 1439.12 840.144 1439.43 837.27L1460.93 655.397H1585.52L1606.94 837.27C1607.25 840.144 1609.75 842.32 1612.63 842.32H1713.53C1717.04 842.32 1719.69 839.29 1719.22 835.871L1606.09 4.97219ZM1473.09 548.728L1522.72 128.655L1572.35 548.728H1473.09Z" fill="white"/>
<path d="M1981.48 0H1800.8C1797.68 0 1795.11 2.56378 1795.11 5.6714V836.571C1795.11 839.678 1797.68 842.242 1800.8 842.242H1901.85C1904.97 842.242 1907.54 839.678 1907.54 836.571V495.898H1988.02C2072.95 495.898 2138.01 446.409 2138.01 320.007V175.969C2138.01 49.4888 2066.33 0 1981.4 0H1981.48ZM2025.5 305.712C2025.5 367.32 2005.63 389.307 1963.71 389.307H1907.46V106.669H1963.71C2005.63 106.669 2025.5 128.655 2025.5 190.264V305.712Z" fill="white"/>
<path d="M2418.19 0H2237.58C2234.47 0 2231.89 2.56378 2231.89 5.6714V836.571C2231.89 839.678 2234.47 842.242 2237.58 842.242H2338.64C2341.75 842.242 2344.33 839.678 2344.33 836.571V495.898H2424.81C2509.74 495.898 2574.8 446.409 2574.8 320.007V175.969C2574.8 49.4888 2503.12 0 2418.19 0ZM2462.29 305.712C2462.29 367.32 2442.42 389.307 2400.5 389.307H2344.25V106.669H2400.5C2442.42 106.669 2462.29 128.655 2462.29 190.264V305.712Z" fill="white"/>
<path d="M2883.18 4.97219C2882.79 2.17533 2880.38 0 2877.5 0H2722.06C2719.17 0 2716.76 2.09764 2716.37 4.97219L2604.33 835.871C2603.86 839.29 2606.51 842.32 2610.02 842.32H2710.91C2713.8 842.32 2716.29 840.144 2716.6 837.27L2738.03 655.397H2862.61L2884.12 837.27C2884.43 840.144 2886.92 842.32 2889.81 842.32H2990.71C2994.21 842.32 2996.86 839.29 2996.39 835.871L2883.18 4.97219ZM2750.18 548.728L2799.82 128.655L2849.45 548.728H2750.18Z" fill="white"/>
<path d="M3333.53 471.736C3395.31 445.322 3415.1 395.833 3415.1 311.228V175.969C3415.1 49.4888 3344.51 0 3259.59 0H3077.81C3074.62 0 3072.12 2.56378 3072.12 5.6714V836.571C3072.12 839.678 3074.7 842.242 3077.81 842.242H3178.87C3182.06 842.242 3184.56 839.678 3184.56 836.571V495.898H3227.56L3323.4 838.124C3324.1 840.611 3326.36 842.32 3328.93 842.32H3431.08C3434.12 842.32 3436.3 839.445 3435.44 836.571L3333.37 471.814L3333.53 471.736ZM3302.67 305.712C3302.67 367.32 3282.81 389.307 3240.89 389.307H3184.63V106.669H3240.89C3282.81 106.669 3302.67 128.655 3302.67 190.264V305.712V305.712Z" fill="white"/>
<path d="M3810.83 0H3520.13C3516.94 0 3514.45 2.56378 3514.45 5.6714V836.571C3514.45 839.678 3517.02 842.242 3520.13 842.242H3810.83C3813.95 842.242 3816.52 839.678 3816.52 836.571V741.322C3816.52 738.215 3813.95 735.651 3810.83 735.651H3626.88V470.649H3803.12C3806.24 470.649 3808.81 468.085 3808.81 464.977V369.729C3808.81 366.621 3806.24 364.057 3803.12 364.057H3626.88V106.669H3810.83C3813.95 106.669 3816.52 104.105 3816.52 100.998V5.6714C3816.52 2.56378 3813.95 0 3810.83 0Z" fill="white"/>
<path d="M4159.34 735.651H4030.55V5.6714C4030.55 2.56378 4027.98 0 4024.86 0H3923.81C3920.61 0 3918.04 2.56378 3918.04 5.6714V836.571C3918.04 839.678 3920.61 842.242 3923.81 842.242H4159.42C4162.54 842.242 4165.11 839.678 4165.11 836.571V741.322C4165.11 738.215 4162.54 735.651 4159.42 735.651" fill="white"/>
<path d="M623.116 728.348H379.711C376.595 728.348 374.023 730.912 374.023 734.02V836.493C374.023 839.601 376.595 842.165 379.711 842.165H623.116C626.233 842.165 628.804 839.601 628.804 836.493V733.942C628.804 730.834 626.233 728.271 623.116 728.271" fill="white"/>
</svg>
